# AST/ASF file generated using VICON BodyLanguage
# -----------------------------------------------
:version 1.10
:name VICON
:units
  mass 1.0
  length 0.45
  angle deg
:documentation
   .ast/.asf automatically generated from VICON data using
   VICON BodyBuilder and BodyLanguage model FoxedUp or BRILLIANT.MOD
:root
   order TX TY TZ RX RY RZ
   axis XYZ
   position 0 0 0  
   orientation 0 0 0 
:bonedata
  begin
     id 1 
     name lhipjoint
     direction 0.573633 -0.743009 0.344793 
     length 2.46257 
     axis 0 0 0  XYZ
  end
  begin
     id 2 
     name lfemur
     direction 0.34202 -0.939693 0  
     length 7.3842  
     axis 0 0 20  XYZ
    dof rx ry rz
    limits (-160.0 20.0)
           (-70.0 70.0)
           (-60.0 70.0)
  end
  begin
     id 3 
     name ltibia
     direction 0.34202 -0.939693 0   
     length 7.50407   
     axis 0 0 20   XYZ
    dof rx
    limits (-10.0 170.0)
  end
  begin
     id 4 
     name lfoot
     direction 0.110749 -0.304281 0.946123   
     length 1.95925   
     axis -90 7.62852e-016 20   XYZ
    dof rx rz
    limits (-45.0 90.0)
           (-70.0 20.0)
  end
  begin
     id 5 
     name ltoes
     direction 1.53554e-011 -4.21843e-011 1   
     length 0.978318   
     axis -90 7.62852e-016 20   XYZ
    dof rx
    limits (-90.0 20.0)
  end
  begin
     id 6 
     name rhipjoint
     direction -0.488109 -0.791693 0.367385   
     length 2.31113  
     axis 0 0 0  XYZ 
  end
  begin
     id 7 
     name rfemur
     direction -0.34202 -0.939693 0   
     length 7.40965   
     axis 0 0 -20   XYZ
    dof rx ry rz
    limits (-160.0 20.0)
           (-70.0 70.0)
           (-70.0 60.0)
  end
  begin
     id 8 
     name rtibia
     direction -0.34202 -0.939693 0   
     length 7.55548   
     axis 0 0 -20   XYZ
    dof rx
    limits (-10.0 170.0)
 end
 begin
     id 9 
     name rfoot
     direction -0.127594 -0.350561 0.927808   
     length 2.07199  
     axis -90 -7.62852e-016 -20   XYZ
    dof rx rz
    limits (-45.0 90.0)
           (-20.0 70.0)
  end
  begin
     id 10 
     name rtoes
     direction -1.53542e-011 -4.21909e-011 1   
     length 1.02667   
     axis -90 -7.62852e-016 -20   XYZ
    dof rx
    limits (-90.0 20.0)
  end
  begin
     id 11 
     name lowerback
     direction -0.0103342 0.997298 -0.0727278   
     length 2.02836   
     axis 0 0 0   XYZ
    dof rx ry rz
    limits (-20.0 45.0)
           (-30.0 30.0)
           (-30.0 30.0)
  end
  begin
     id 12 
     name upperback
     direction 0.0171146 0.999786 -0.011606   
     length 2.03179   
     axis 0 0 0   XYZ
    dof rx ry rz
    limits (-20.0 45.0)
           (-30.0 30.0)
           (-30.0 30.0)
  end
  begin
     id 13 
     name thorax
     direction 0.0216927 0.999513 0.0224343   
     length 2.03882   
     axis 0 0 0   XYZ
    dof rx ry rz
    limits (-20.0 45.0)
           (-30.0 30.0)
           (-30.0 30.0)
  end
  begin
     id 14 
     name lowerneck
     direction 0.000989287 0.993907 0.110221   
     length 1.75428   
     axis 0 0 0   XYZ
    dof rx ry rz
    limits (-20.0 45.0)
           (-30.0 30.0)
           (-30.0 30.0)
  end
  begin
     id 15 
     name upperneck
     direction -0.0172474 0.994813 -0.100253   
     length 1.77058   
     axis 0 0 0   XYZ
    dof rx ry rz
    limits (-20.0 45.0)
           (-30.0 30.0)
           (-30.0 30.0)
  end
  begin
     id 16
     name head
     direction -0.00486455 0.99894 -0.0457663  
     length 1.77427  
     axis 0 0 0   XYZ
    dof rx ry rz
    limits (-20.0 45.0)
           (-30.0 30.0)
           (-30.0 30.0)
  end
  begin
     id 17 
     name lclavicle
     direction 0.927314 0.333734 -0.169441  
     length 3.97584  
     axis 0 0 0   XYZ
    dof ry rz
    limits (-20.0 10.0)
           (0.0 20.0)
  end
  begin
     id 18 
     name lhumerus
     direction 1 -4.48965e-011 -3.25313e-028   
     length 4.76468   
     axis 180 -30 -90   XYZ
    dof rx ry rz
    limits (-60.0 90.0)
           (-90.0 90.0)
           (-90.0 90.0)
  end
  begin
     id 19
     name lradius
     direction 1 -4.48969e-011 -2.8465e-028   
     length 3.52712   
     axis -180 -30 -90   XYZ
    dof rx
    limits (-10.0 170.0)
  end
  begin
     id 20
     name lwrist
     direction 1 -4.4896e-011 -7.78665e-028   
     length 1.76356   
     axis 1.91374e-015 90 90   XYZ
    dof ry
    limits (-180.0 0.0)
 end
  begin
     id 21 
     name lhand
     direction 1 -4.48959e-011 -1.55733e-027   
     length 0.859564   
     axis 9.9371e-016 90 90   XYZ
    dof rx rz
    limits (-90.0 90.0)
           (-45.0 45.0)
  end
  begin
     id 22 
     name lfingers
     direction 1 -4.48965e-011 -3.11466e-027   
     length 0.693002   
     axis 1.98742e-015 90 90   XYZ
    dof rx
    limits (0.0 90.0)
  end
  begin
     id 23
     name lthumb
     direction 0.707107 -6.34948e-011 0.707107   
     length 0.995017   
     axis -90 45 2.85299e-015   XYZ
    dof rx rz
    limits (-45.0 45.0)
           (-45.0 45.0)
  end
  begin
     id 24 
     name rclavicle
     direction -0.899388 0.348209 -0.264294   
     length 3.68366  
     axis 0 0 0   XYZ 
    dof ry rz
    limits (-10.0 20.0)
           (-20.0 0.0)
  end
  begin
     id 25 
     name rhumerus
     direction -1 -4.48965e-011 -3.01536e-027  
     length 4.90577   
     axis 180 30 90   XYZ
    dof rx ry rz
    limits (-90.0 60.0)
           (-90.0 90.0)
           (-90.0 90.0)
  end
  begin
     id 26 
     name rradius
     direction -1 -4.48966e-011 3.93291e-027   
     length 3.42692   
     axis -180 30 90   XYZ
    dof rx
    limits (-10.0 170.0)
  end
  begin
     id 27 
     name rwrist
     direction -1 -4.48969e-011 -7.78665e-028   
     length 1.71346   
     axis 1.91374e-015 -90 -90   XYZ
    dof ry
    limits (-180.0 0.0)
  end
  begin
     id 28
     name rhand
     direction -1 -4.48967e-011 -1.55733e-027   
     length 0.740957   
     axis 9.9371e-016 -90 -90   XYZ
    dof rx rz
    limits (-90.0 90.0)
           (-45.0 45.0)
  end
  begin
     id 29
     name rfingers
     direction -1 -4.48949e-011 -3.11466e-027   
     length 0.597378   
     axis 1.98742e-015 -90 -90   XYZ
    dof rx
    limits (0.0 90.0)
  end
  begin
     id 30
     name rthumb
     direction -0.707107 -6.34931e-011 0.707107   
     length 0.857719   
     axis -90 -45 -2.85299e-015   XYZ
    dof rx rz
    limits (-45.0 45.0)
           (-45.0 45.0)
  end
:hierarchy
  begin
    root lhipjoint rhipjoint lowerback
    lhipjoint lfemur
    lfemur ltibia
    ltibia lfoot
    lfoot ltoes
    rhipjoint rfemur
    rfemur rtibia
    rtibia rfoot
    rfoot rtoes
    lowerback upperback
    upperback thorax
    thorax lowerneck lclavicle rclavicle
    lowerneck upperneck
    upperneck head
    lclavicle lhumerus
    lhumerus lradius
    lradius lwrist
    lwrist lhand lthumb
    lhand lfingers
    rclavicle rhumerus
    rhumerus rradius
    rradius rwrist
    rwrist rhand rthumb
    rhand rfingers
  end

#!OML:ASF E:\I on waltz\AllaLogoMonkeySwing\Project 1\Capture day 1\Session 1\Subject1.ASF
:FULLY-SPECIFIED
:DEGREES
162
root -0.351251 19.6366 -6.68042 12.2312 0.728745 -1.65192
lowerback 21.2845 1.56104 -2.58666
upperback 3.59995 1.5753 1.33908
thorax -8.07237 0.838564 2.49985
lowerneck -17.5713 0.290907 -1.68464
upperneck 6.9134 0.732914 0.363648
head 4.89818 0.337331 0.450762
rclavicle 9.54166e-015 1.70955e-014
rhumerus -69.4147 7.22428 -76.693
rradius 93.894
rwrist -17.3515
rhand -11.4293 -20.923
rfingers 7.12502
rthumb 14.6069 -50.3886
lclavicle 9.54166e-015 1.70955e-014
lhumerus -81.7633 -6.22247 59.8671
lradius 91.1562
lwrist 200.056
lhand -14.3901 38.5192
lfingers 7.12502
lthumb 11.7529 68.1695
rfemur -29.0445 -4.63126 17.7577
rtibia 27.4772
rfoot 1.53042 -6.40701
rtoes 4.16744
lfemur -24.8534 -1.5777 -15.5402
ltibia 19.624
lfoot 3.86734 -2.31527
ltoes -33.2884
163
root -0.366961 19.2784 -6.07468 12.8298 0.63278 -1.51829
lowerback 21.1483 1.70723 -3.02952
upperback 3.67811 1.66588 1.2881
thorax -7.93006 0.889849 2.67463
lowerneck -18.1231 0.273835 -1.80861
upperneck 6.42244 0.754476 0.309315
head 4.82979 0.343881 0.455692
rclavicle -5.46658e-016 -8.15017e-015
rhumerus -72.0136 4.18115 -77.3183
rradius 92.1467
rwrist -15.8741
rhand -11.8773 -19.7029
rfingers 7.12502
rthumb 14.1752 -49.1993
lclavicle -5.46658e-016 -8.15017e-015
lhumerus -84.0809 -3.32083 60.1916
lradius 90.8276
lwrist 200.078
lhand -15.3109 38.3217
lfingers 7.12502
lthumb 10.8648 68.0207
rfemur -32.5181 -4.77912 17.6294
rtibia 28.3095
rfoot 2.28683 -6.43863
rtoes 4.64341
lfemur -27.9504 -2.82886 -14.7368
ltibia 19.5018
lfoot 5.68686 -3.00965
ltoes -33.3948
164
root -0.378821 18.8679 -5.46496 12.9983 0.71645 -1.79973
lowerback 21.3551 1.79243 -2.82413
upperback 3.73652 1.81835 1.31209
thorax -7.98168 0.957112 2.53826
lowerneck -18.6569 0.221156 -1.92353
upperneck 5.88429 0.72442 0.278043
head 4.74341 0.327828 0.461457
rclavicle -7.55382e-015 2.78299e-015
rhumerus -73.2754 0.809022 -77.6917
rradius 89.8772
rwrist -14.7791
rhand -10.6763 -20.366
rfingers 7.12502
rthumb 15.3323 -49.7776
lclavicle -7.55382e-015 2.78299e-015
lhumerus -85.0545 0.0900877 60.0804
lradius 90.3641
lwrist 199.433
lhand -16.4014 37.9671
lfingers 7.12502
lthumb 9.8129 67.7185
rfemur -35.4899 -4.98079 17.9659
rtibia 29.8895
rfoot 2.62927 -5.90635
rtoes 1.83193
lfemur -30.8664 -4.00332 -13.3478
ltibia 20.612
lfoot 6.37594 -3.77661
ltoes -35.0736
165
root -0.401192 18.405 -4.85231 12.8914 1.14856 -2.68342
lowerback 21.6138 1.74929 -2.12364
upperback 3.73678 1.94021 1.59848
thorax -8.11565 1.00186 2.4117
lowerneck -18.6732 0.223447 -1.96535
upperneck 4.90206 0.744719 0.17366
head 4.43737 0.337205 0.434635
rclavicle -4.02539e-015 -5.56597e-015
rhumerus -73.0122 -1.97252 -78.2533
rradius 86.9218
rwrist -16.0777
rhand -10.1059 -20.797
rfingers 7.12502
rthumb 15.8817 -50.1657
lclavicle -4.02539e-015 -5.56597e-015
lhumerus -84.8789 4.02076 60.1397
lradius 89.2634
lwrist 199.004
lhand -16.5638 38.7887
lfingers 7.12502
lthumb 9.6562 68.5474
rfemur -38.0805 -4.83209 18.8295
rtibia 32.1753
rfoot 3.33383 -4.88843
rtoes 0.759783
lfemur -33.8887 -4.48278 -11.3213
ltibia 23.3312
lfoot 6.45198 -5.16904
ltoes -37.9152
166
root -0.41909 17.8861 -4.22349 12.2813 1.32783 -2.68006
lowerback 22.1432 1.8063 -2.22949
upperback 3.64154 1.98037 1.58925
thorax -8.50731 1.0284 2.44206
lowerneck -18.3694 0.249037 -1.94306
upperneck 3.85266 0.770733 0.0793605
head 4.06302 0.35293 0.400483
rclavicle -1.52567e-014 1.16289e-014
rhumerus -71.5261 -4.98901 -78.5674
rradius 83.1566
rwrist -15.8464
rhand -10.1322 -18.2501
rfingers 7.12502
rthumb 15.8564 -47.6208
lclavicle -1.52567e-014 1.16289e-014
lhumerus -83.9391 7.90399 60.4914
lradius 87.8823
lwrist 197.868
lhand -16.1258 40.0765
lfingers 7.12502
lthumb 10.0788 69.8151
rfemur -40.1625 -4.72838 18.4004
rtibia 35.4377
rfoot 4.45314 -3.01224
rtoes 4.40463
lfemur -36.2715 -4.63117 -10.7509
ltibia 26.8233
lfoot 6.57591 -7.80843
ltoes -38.8036
167
root -0.424238 17.335 -3.57707 11.0315 1.41919 -3.47168
lowerback 23.0006 1.8143 -1.50813
upperback 3.53766 2.16765 1.76265
thorax -9.07051 1.10225 2.14879
lowerneck -18.0965 0.293678 -1.9183
upperneck 3.0316 0.81621 0.0576168
head 3.76579 0.38139 0.390871
rclavicle -1.77167e-014 -1.39646e-014
rhumerus -68.7894 -7.57473 -78.9678
rradius 78.3367
rwrist -14.7491
rhand -10.6695 -18.8687
rfingers 7.12502
rthumb 15.3388 -48.2798
lclavicle -1.77167e-014 -1.39646e-014
lhumerus -81.7529 11.7529 61.4216
lradius 85.9291
lwrist 197.203
lhand -15.0292 40.6571
lfingers 7.12502
lthumb 11.1366 70.3415
rfemur -41.5535 -4.59936 19.0391
rtibia 40.7916
rfoot -0.710884 -1.93269
rtoes 5.20397
lfemur -38.539 -2.78516 -10.6833
ltibia 37.1746
lfoot -7.53682 -8.36976
ltoes -50.7123
168
root -0.438556 16.7606 -2.96603 10.0337 2.01358 -3.53952
lowerback 23.6999 1.656 -1.38644
upperback 3.17988 1.99638 1.80135
thorax -9.83011 1.0263 2.16228
lowerneck -17.4234 0.435089 -1.59167
upperneck 1.74593 0.932558 -0.202171
head 3.67916 0.43669 0.299717
rclavicle -1.35174e-014 -1.67973e-014
rhumerus -64.538 -10.016 -79.4976
rradius 72.9996
rwrist -13.879
rhand -10.9958 -19.1195
rfingers 7.12502
rthumb 15.0245 -48.5543
lclavicle -1.35174e-014 -1.67973e-014
lhumerus -79.2932 15.4103 63.002
lradius 84.1796
lwrist 197.326
lhand -13.4147 40.2719
lfingers 7.12502
lthumb 12.6934 69.8661
rfemur -43.5042 -5.36544 19.4703
rtibia 50.9658
rfoot -8.03051 -5.69482
rtoes -0.930365
lfemur -41.796 -1.70995 -11.6086
ltibia 50.7207
lfoot -13.9055 -3.31016
ltoes -41.3053
169
root -0.47899 16.22 -2.3834 10.0034 2.62516 -2.57808
lowerback 23.6467 1.62234 -2.56377
upperback 2.43027 1.64116 1.62326
thorax -10.6544 0.922458 2.75361
lowerneck -16.6269 0.652709 -1.48534
upperneck 1.02243 1.16819 0.00152132
head 3.26465 0.571429 0.359338
rclavicle 1.86485e-014 4.96962e-016
rhumerus -59.5741 -12.4479 -80.1323
rradius 67.6082
rwrist -15.5112
rhand -10.1412 -17.7246
rfingers 7.12502
rthumb 15.8477 -47.096
lclavicle 1.86485e-014 4.96962e-016
lhumerus -75.0091 18.961 65.2835
lradius 81.0964
lwrist 197.451
lhand -11.9427 41.2476
lfingers 7.12502
lthumb 14.1122 70.7484
rfemur -46.1992 -4.67327 17.8049
rtibia 59.8545
rfoot -15.1837 -5.60572
rtoes 17.4365
lfemur -45.2896 -1.70981 -12.8515
ltibia 60.5447
lfoot -17.948 -3.4068
ltoes -36.5567
170
root -0.504855 15.8058 -1.78876 11.6121 2.75484 -2.48544
lowerback 21.4904 1.6287 -2.76588
upperback 1.29447 1.64684 1.55456
thorax -10.765 0.953007 2.80802
lowerneck -15.6717 0.636089 -0.690877
upperneck -0.0325015 1.03408 -1.11321
head 2.72594 0.469565 -0.16831
rclavicle 7.20594e-015 -1.73937e-016
rhumerus -52.5325 -13.6164 -81.8246
rradius 62.23
rwrist -22.3378
rhand -11.4311 -20.8487
rfingers 7.12502
rthumb 14.6052 -50.3144
lclavicle 7.20594e-015 -1.73937e-016
lhumerus -67.0987 21.4097 69.0084
lradius 76.5199
lwrist 198.708
lhand -14.8363 42.0383
lfingers 7.12502
lthumb 11.3226 71.7126
rfemur -49.4933 -4.70428 18.7301
rtibia 67.5172
rfoot -19.5814 -8.81219
rtoes 4.36535
lfemur -49.2459 -1.41126 -12.9227
ltibia 68.5415
lfoot -21.7119 -3.15521
ltoes -35.0818
171
root -0.559556 15.5278 -1.16243 10.7138 2.58293 -3.44611
lowerback 20.9576 1.76408 -2.17403
upperback 0.600895 1.9963 1.6737
thorax -11.2619 1.10564 2.49812
lowerneck -14.2922 0.500175 -0.518148
upperneck -0.110094 0.796776 -0.878245
head 2.44249 0.365454 -0.142229
rclavicle 1.56139e-014 8.69683e-016
rhumerus -45.1989 -13.248 -83.6943
rradius 58.3145
rwrist -25.2851
rhand -19.0099 -3.67909
rfingers 7.12502
rthumb 7.29556 -33.5333
lclavicle 1.56139e-014 8.69683e-016
lhumerus -56.8771 21.981 73.7744
lradius 72.4211
lwrist 199.195
lhand -19.8422 40.8796
lfingers 7.12502
lthumb 6.49219 70.7601
rfemur -48.53 -3.12238 20.4345
rtibia 72.4906
rfoot -23.4667 -11.6906
rtoes 1.09935
lfemur -47.4453 -0.679587 -11.4412
ltibia 72.2257
lfoot -25.2142 -3.67178
ltoes -34.8355
172
root -0.567411 15.4314 -0.514175 8.41853 1.83893 -3.06279
lowerback 21.1551 2.28915 -2.52547
upperback 0.619002 2.54983 1.26125
thorax -11.3825 1.36904 2.06632
lowerneck -15.0826 0.156903 -0.501121
upperneck 1.84308 0.28241 0.363964
head 3.26686 0.153982 0.231199
rclavicle 1.86361e-015 -9.34288e-015
rhumerus -39.5194 -11.7484 -86.2753
rradius 59.0372
rwrist -18.3013
rhand -17.946 -11.0881
rfingers 7.12502
rthumb 8.3224 -40.9042
lclavicle 1.86361e-015 -9.34288e-015
lhumerus -45.4038 9.11561 92.007
lradius 69.6593
lwrist 19.5088
lhand -12.9652 -37.8369
lfingers 7.12502
lthumb 13.1267 -8.27004
rfemur -43.3425 -2.63407 20.3018
rtibia 73.3819
rfoot -27.2635 -12.9541
rtoes 0.657429
lfemur -41.3872 -0.749177 -12.0352
ltibia 72.3566
lfoot -29.0658 -3.54937
ltoes -31.0847
173
root -0.5736 15.4548 0.126891 6.6645 2.00924 -2.7103
lowerback 21.5638 2.31893 -3.15741
upperback -0.143404 2.41921 1.21563
thorax -12.503 1.36544 2.39922
lowerneck -15.884 0.115946 -0.261498
upperneck 4.6627 0.107691 1.15009
head 3.93909 0.117594 0.406204
rclavicle 1.54804e-014 1.59028e-015
rhumerus -37.1488 -5.9324 -89.0708
rradius 65.9298
rwrist -17.2534
rhand -14.8554 -15.9679
rfingers 7.12502
rthumb 11.3042 -45.6433
lclavicle 1.54804e-014 1.59028e-015
lhumerus -43.5092 5.21618 96.3815
lradius 77.1891
lwrist 19.1603
lhand -13.3758 -36.7545
lfingers 7.12502
lthumb 12.7309 -7.16257
rfemur -37.098 -3.68036 20.0472
rtibia 71.4052
rfoot -29.8639 -13.5546
rtoes -1.20391
lfemur -35.3919 -0.910308 -12.7518
ltibia 70.767
lfoot -31.3206 -2.64269
ltoes -30.2988
